700 0 1 0           
30 Autodesk Translation Framework 20 ASM 227.1.0.65535 NT 24 Sun Aug 28 15:45:07 2022 
1 9.999999999999999547e-07 1.000000000000000036e-10 
body $1 -1 $-1 $2 $-1 $3 #
rgb_color-st-attrib $-1 -1 $4 $-1 $0 0.7490196078431372584 0.7490196078431372584 0.7490196078431372584 #
lump $-1 -1 $-1 $-1 $5 $0 #
transform $-1 -1 1 0 0 0 1 0 0 0 1 0 0 0 1 no_rotate no_reflect no_shear #
DXID-attrib $-1 -1 $-1 $1 $0 @10 ASM ENTITY @97 TABLERO.IPT|:|910908E08801F9F27F9B1E266F35B328F97FFA2B|:|DA4B9237BACCCDF19C0760CAB7AEC4A8359010B0 #
shell $-1 -1 $-1 $-1 $-1 $6 $-1 $2 #
face $7 -1 $-1 $8 $9 $5 $-1 $10 reversed single #
DXID-attrib $-1 -1 $-1 $-1 $6 @10 ASM ENTITY @36 b0e82675-9f3f-471e-bd00-82392352b38a #
face $11 -1 $-1 $12 $13 $5 $-1 $14 forward single #
loop $-1 -1 $-1 $15 $16 $6 #
cone-surface $-1 -1 $-1 -181.6084105245683986 35.8907877854027646 -141.75 0.7021908046254450309 -0.7119888158527984956 0 17.79972039631995884 17.55477011563612777 0 1 I I 0 1 25 forward I I I I #
DXID-attrib $-1 -1 $-1 $-1 $8 @10 ASM ENTITY @36 5750cb86-ad51-4edd-bd9c-698c6f1155fe #
face $17 -1 $-1 $18 $19 $5 $-1 $20 forward single #
loop $-1 -1 $-1 $-1 $21 $8 #
plane-surface $-1 -1 $-1 -181.2573151222557044 35.53479337747638311 -141.75 -0.702190804625455911 0.7119888158527879485 0 0 0 10 forward_v I I I I #
loop $-1 -1 $-1 $-1 $22 $6 #
coedge $-1 -1 $-1 $16 $16 $21 $23 forward $9 $-1 #
DXID-attrib $-1 -1 $-1 $-1 $12 @10 ASM ENTITY @36 e0900a67-d44f-40ef-a748-ab453eb9b60d #
face $24 -1 $-1 $25 $26 $5 $-1 $27 forward single #
loop $-1 -1 $-1 $-1 $28 $12 #
plane-surface $-1 -1 $-1 -49.83921710969514152 165.8466436762180933 -41.75000000000000711 0 0 1 7.119888158527877486 7.02190804625455911 0 forward_v I I I I #
coedge $-1 -1 $-1 $21 $21 $16 $23 reversed $13 $-1 #
coedge $-1 -1 $-1 $22 $22 $29 $30 reversed $15 $-1 #
edge $31 -1 $-1 $32 -6.283185307179586232 $32 -0 $16 $33 forward @7 unknown #
DXID-attrib $-1 -1 $-1 $-1 $18 @10 ASM ENTITY @36 f6c8aaae-b8ef-4579-9b66-16d32160859f #
face $34 -1 $-1 $35 $36 $5 $-1 $37 forward single #
loop $-1 -1 $-1 $-1 $38 $18 #
plane-surface $-1 -1 $-1 -49.83921710969514152 165.8466436762180933 -71.75 -0.7119888158528027144 -0.702190804625440812 0 0 0 10 forward_v I I I I #
coedge $-1 -1 $-1 $39 $40 $41 $42 reversed $19 $-1 #
coedge $-1 -1 $-1 $29 $29 $22 $30 forward $43 $-1 #
edge $-1 -1 $-1 $44 0 $44 6.283185307179586232 $29 $45 forward @7 unknown #
DXID-attrib $-1 -1 $-1 $-1 $23 @10 ASM ENTITY @36 2caba8e8-3116-4ca4-91e6-fb75cbcbc06a #
vertex $-1 -1 $-1 $23 $46 #
ellipse-curve $-1 -1 $-1 -181.2573151222557044 35.53479337747638311 -141.75 0.702190804625455911 -0.7119888158527879485 0 17.79972039631969949 17.55477011563640133 0 1 I I #
DXID-attrib $-1 -1 $-1 $-1 $25 @10 ASM ENTITY @36 630e0f9f-8cde-46df-8fed-4c1b7eb8ff78 #
face $47 -1 $-1 $48 $49 $5 $-1 $50 forward single #
loop $-1 -1 $-1 $-1 $51 $25 #
plane-surface $-1 -1 $-1 -135.277875012029682 81.58374712116334138 -71.75 0 0 1 7.119888158527877486 7.021908046254559999 0 forward_v I I I I #
coedge $-1 -1 $-1 $52 $53 $54 $55 reversed $26 $-1 #
coedge $-1 -1 $-1 $56 $28 $57 $58 forward $19 $-1 #
coedge $-1 -1 $-1 $28 $56 $52 $59 reversed $19 $-1 #
coedge $-1 -1 $-1 $54 $60 $28 $42 forward $61 $-1 #
edge $-1 -1 $-1 $62 -13.80922924251903794 $63 -11.80922924251903794 $41 $64 forward @7 unknown #
loop $-1 -1 $-1 $61 $29 $65 #
vertex $-1 -1 $-1 $30 $66 #
ellipse-curve $-1 -1 $-1 -181.6084105245678586 35.89078778540222459 -141.75 0.7021908046254558 -0.7119888158527878375 0 17.79972039631995884 17.55477011563612777 0 1 I I #
point $-1 -1 $-1 -163.4575947259359623 53.08956349311277023 -141.75 #
DXID-attrib $-1 -1 $-1 $-1 $35 @10 ASM ENTITY @36 37dd1576-011f-46e5-80b4-cc36114d92cc #
face $67 -1 $-1 $68 $69 $5 $-1 $70 forward single #
loop $-1 -1 $-1 $-1 $71 $35 #
plane-surface $-1 -1 $-1 -135.277875012029682 81.58374712116338401 -131.75 -0.7119888158528027144 -0.702190804625440812 0 0 0 10 forward_v I I I I #
coedge $-1 -1 $-1 $72 $73 $74 $75 reversed $36 $-1 #
coedge $-1 -1 $-1 $76 $38 $40 $59 forward $26 $-1 #
coedge $-1 -1 $-1 $38 $76 $72 $77 reversed $26 $-1 #
coedge $-1 -1 $-1 $74 $41 $38 $55 forward $61 $-1 #
edge $-1 -1 $-1 $63 0.5875000000000003553 $78 3.587500000000000355 $54 $79 forward @7 unknown #
coedge $-1 -1 $-1 $40 $39 $80 $81 reversed $19 $-1 #
coedge $-1 -1 $-1 $82 $83 $39 $58 reversed $84 $-1 #
edge $85 -1 $-1 $62 0 $86 0.05000000000000121014 $57 $87 forward @7 unknown #
edge $88 -1 $-1 $63 0 $89 0.05000000000000089789 $52 $90 forward @7 unknown #
coedge $-1 -1 $-1 $41 $91 $82 $92 forward $61 $-1 #
loop $-1 -1 $-1 $93 $41 $65 #
vertex $-1 -1 $-1 $42 $94 #
vertex $-1 -1 $-1 $42 $95 #
straight-curve $-1 -1 $-1 -133.9196085548475992 82.92332183810904667 -41.75000000000000711 -7.119888158527878375 -7.021908046254558222 0 I I #
face $96 -1 $-1 $97 $43 $5 $-1 $98 forward single #
point $-1 -1 $-1 -163.8086901282486565 53.44555790103916593 -141.75 #
DXID-attrib $-1 -1 $-1 $-1 $48 @10 ASM ENTITY @36 ed797060-bc48-41f3-a169-71f2ccb6937d #
face $99 -1 $-1 $100 $101 $5 $-1 $102 forward single #
loop $-1 -1 $-1 $-1 $103 $48 #
plane-surface $-1 -1 $-1 -121.0380986949739111 95.62756321367248802 -131.75 0 0 -1 -7.119888158527877486 -7.02190804625455911 -0 forward_v I I I I #
coedge $-1 -1 $-1 $104 $105 $106 $107 reversed $49 $-1 #
coedge $-1 -1 $-1 $108 $51 $53 $77 forward $36 $-1 #
coedge $-1 -1 $-1 $51 $108 $104 $109 reversed $36 $-1 #
coedge $-1 -1 $-1 $106 $54 $51 $75 forward $61 $-1 #
edge $-1 -1 $-1 $78 -17.80922924251904149 $110 -5.809229242519040604 $74 $111 forward @7 unknown #
coedge $-1 -1 $-1 $53 $52 $112 $113 reversed $26 $-1 #
edge $114 -1 $-1 $78 0 $115 0.05000000000000089789 $72 $116 forward @7 unknown #
vertex $-1 -1 $-1 $55 $117 #
straight-curve $-1 -1 $-1 -49.83921710969514152 165.8466436762181218 -35.875 0 0 -10 I I #
coedge $-1 -1 $-1 $118 $112 $56 $81 forward $119 $-1 #
edge $120 -1 $-1 $89 -2 $86 -3.161865506541462374e-16 $56 $121 forward @7 unknown #
coedge $-1 -1 $-1 $122 $57 $60 $92 reversed $84 $-1 #
coedge $-1 -1 $-1 $57 $122 $118 $123 reversed $84 $-1 #
loop $-1 -1 $-1 $-1 $82 $124 #
DXID-attrib $-1 -1 $-1 $-1 $58 @10 ASM ENTITY @36 2473fb88-6a98-48cd-9363-96511e1e2354 #
vertex $-1 -1 $-1 $58 $125 #
straight-curve $-1 -1 $-1 -35.59944079263938477 179.8904597687271973 -41.75000000000000711 -7.02190804625440812 7.119888158528027589 0 I I #
DXID-attrib $-1 -1 $-1 $-1 $59 @10 ASM ENTITY @36 769a2535-f8ad-40f4-9b0f-db1c676af6be #
vertex $-1 -1 $-1 $81 $126 #
straight-curve $-1 -1 $-1 -49.83921710969514152 165.8466436762180933 -41.75000000000000711 -7.02190804625440812 7.119888158528027589 0 I I #
coedge $-1 -1 $-1 $60 $127 $128 $129 forward $61 $-1 #
edge $-1 -1 $-1 $130 -11.08750000000000036 $62 -2.087500000000000355 $60 $131 forward @7 unknown #
loop $-1 -1 $-1 $132 $133 $65 #
point $-1 -1 $-1 -35.59944079263938477 179.8904597687271973 -41.75000000000000711 #
point $-1 -1 $-1 -49.83921710969514152 165.8466436762180933 -41.75000000000000711 #
DXID-attrib $-1 -1 $-1 $-1 $65 @10 ASM ENTITY @36 2fc374ff-e2d1-47ca-89d5-cbd6789b0ccb #
face $134 -1 $-1 $135 $136 $5 $-1 $137 forward single #
plane-surface $-1 -1 $-1 -218.0000000000000568 0 0 -0.7021908046254558 0.7119888158527878375 0 7.119888158527878375 7.021908046254558222 0 forward_v I I I I #
DXID-attrib $-1 -1 $-1 $-1 $68 @10 ASM ENTITY @36 21043284-8a7c-45c9-a259-7f57df6d384d #
face $138 -1 $-1 $139 $140 $5 $-1 $141 forward single #
loop $-1 -1 $-1 $-1 $142 $68 #
plane-surface $-1 -1 $-1 -121.0380986949739111 95.62756321367248802 -96.75 0.7119888158528027144 0.702190804625440812 0 -0 -0 -10 forward_v I I I I #
coedge $-1 -1 $-1 $143 $144 $145 $146 reversed $69 $-1 #
coedge $-1 -1 $-1 $147 $71 $73 $109 forward $49 $-1 #
coedge $-1 -1 $-1 $71 $147 $143 $148 reversed $49 $-1 #
coedge $-1 -1 $-1 $145 $74 $71 $107 forward $61 $-1 #
edge $-1 -1 $-1 $110 0.5875000000000003553 $149 6.587500000000000355 $106 $150 forward @7 unknown #
coedge $-1 -1 $-1 $73 $72 $151 $152 reversed $36 $-1 #
edge $153 -1 $-1 $110 0 $154 0.05000000000000152239 $104 $155 forward @7 unknown #
vertex $-1 -1 $-1 $75 $156 #
straight-curve $-1 -1 $-1 -176.6389375060148836 40.79187356058167779 -71.75 -7.119888158527878375 -7.021908046254558222 0 I I #
coedge $-1 -1 $-1 $80 $151 $76 $113 forward $119 $-1 #
edge $157 -1 $-1 $115 -3 $89 0 $76 $158 forward @7 unknown #
DXID-attrib $-1 -1 $-1 $-1 $77 @10 ASM ENTITY @36 905f9f85-ffc2-41fe-a064-a7de146b6174 #
vertex $-1 -1 $-1 $113 $159 #
straight-curve $-1 -1 $-1 -49.83921710969514152 165.8466436762180933 -71.75 -7.02190804625440812 7.119888158528027589 0 I I #
point $-1 -1 $-1 -49.83921710969514152 165.8466436762180933 -71.75 #
coedge $-1 -1 $-1 $160 $80 $83 $123 forward $119 $-1 #
loop $-1 -1 $-1 $-1 $118 $161 #
DXID-attrib $-1 -1 $-1 $-1 $81 @10 ASM ENTITY @36 52086453-992d-4165-beb5-1e1638ea3d9a #
straight-curve $-1 -1 $-1 -35.95053619495210739 180.2464541766536286 -41.75000000000000711 7.119888158527878375 7.021908046254559999 0 I I #
coedge $-1 -1 $-1 $83 $82 $162 $163 forward $84 $-1 #
edge $164 -1 $-1 $86 -9 $165 -0 $83 $166 forward @7 unknown #
face $167 -1 $-1 $161 $84 $5 $-1 $168 forward single #
point $-1 -1 $-1 -35.9505361949521145 180.2464541766536286 -41.74999999999997158 #
point $-1 -1 $-1 -50.19031251200787125 166.2026380841444961 -41.74999999999997158 #
coedge $-1 -1 $-1 $91 $169 $170 $171 forward $61 $-1 #
coedge $-1 -1 $-1 $172 $162 $91 $129 reversed $173 $-1 #
edge $-1 -1 $-1 $174 10.80922924251903794 $130 12.80922924251903794 $91 $175 forward @7 unknown #
vertex $-1 -1 $-1 $129 $176 #
straight-curve $-1 -1 $-1 -35.59944079263937056 179.8904597687272258 -20.87500000000000355 0 0 10 I I #
loop $-1 -1 $-1 $-1 $177 $65 #
coedge $-1 -1 $-1 $178 $179 $180 $181 forward $93 $-1 #
DXID-attrib $-1 -1 $-1 $-1 $97 @10 ASM ENTITY @36 528e5c77-d658-4400-bc7c-7b5df17dcaca #
face $182 -1 $-1 $183 $184 $5 $-1 $185 forward single #
loop $-1 -1 $-1 $-1 $186 $97 #
plane-surface $-1 -1 $-1 -196 0 0 -0 -1 -0 -10 0 0 forward_v I I I I #
DXID-attrib $-1 -1 $-1 $-1 $100 @10 ASM ENTITY @36 d4a01230-81a5-499d-b142-62da9985b504 #
face $187 -1 $-1 $188 $189 $5 $-1 $190 forward single #
loop $-1 -1 $-1 $-1 $191 $100 #
plane-surface $-1 -1 $-1 -49.8392171096951202 165.8466436762180933 -96.75 0 0 -1 -7.119888158527878375 -7.02190804625455911 -0 forward_v I I I I #
coedge $-1 -1 $-1 $192 $193 $194 $195 reversed $101 $-1 #
coedge $-1 -1 $-1 $196 $103 $105 $148 forward $69 $-1 #
coedge $-1 -1 $-1 $103 $196 $192 $197 reversed $69 $-1 #
coedge $-1 -1 $-1 $194 $106 $103 $146 forward $61 $-1 #
edge $-1 -1 $-1 $149 4.809229242519036163 $198 6.809229242519036163 $145 $199 forward @7 unknown #
coedge $-1 -1 $-1 $105 $104 $200 $201 reversed $49 $-1 #
edge $202 -1 $-1 $149 0 $203 0.05000000000000152239 $143 $204 forward @7 unknown #
vertex $-1 -1 $-1 $107 $205 #
straight-curve $-1 -1 $-1 -135.277875012029682 81.58374712116341243 -65.875 0 0 -10 I I #
coedge $-1 -1 $-1 $112 $200 $108 $152 forward $119 $-1 #
edge $206 -1 $-1 $154 -12.00000000000000355 $115 -0 $108 $207 forward @7 unknown #
DXID-attrib $-1 -1 $-1 $-1 $109 @10 ASM ENTITY @36 d21b5823-7f53-41c2-adff-5b5fb4538cc3 #
vertex $-1 -1 $-1 $152 $208 #
straight-curve $-1 -1 $-1 -135.277875012029682 81.58374712116338401 -71.75 -7.02190804625440812 7.119888158528027589 0 I I #
point $-1 -1 $-1 -135.277875012029682 81.58374712116338401 -71.75 #
DXID-attrib $-1 -1 $-1 $-1 $113 @10 ASM ENTITY @36 fdb54043-dd24-4f95-a0d8-9aaaa8f5db4b #
straight-curve $-1 -1 $-1 -50.19031251200786414 166.2026380841444961 -41.75000000000000711 0 0 10 I I #
point $-1 -1 $-1 -50.19031251200787125 166.2026380841444961 -71.74999999999997158 #
coedge $-1 -1 $-1 $209 $118 $210 $211 forward $119 $-1 #
face $212 -1 $-1 $213 $119 $5 $-1 $214 forward single #
coedge $-1 -1 $-1 $128 $210 $122 $163 reversed $173 $-1 #
edge $215 -1 $-1 $130 0 $165 0.05000000000000121014 $122 $216 forward @7 unknown #
DXID-attrib $-1 -1 $-1 $-1 $123 @10 ASM ENTITY @36 98674f42-0445-485e-8c07-e85e1fb7ad23 #
vertex $-1 -1 $-1 $211 $217 #
straight-curve $-1 -1 $-1 -35.9505361949521145 180.2464541766536286 -131.75 -0 -0 -10 I I #
DXID-attrib $-1 -1 $-1 $-1 $124 @10 ASM ENTITY @36 d1790971-8886-4eca-a4a9-9290c3ef0562 #
plane-surface $-1 -1 $-1 -35.59944079263938477 179.8904597687271973 -41.75000000000000711 0.7119888158528027144 0.702190804625440812 0 -0 -0 -10 forward_v I I I I #
coedge $-1 -1 $-1 $127 $194 $191 $218 forward $61 $-1 #
coedge $-1 -1 $-1 $219 $220 $127 $171 reversed $189 $-1 #
edge $-1 -1 $-1 $221 3.087500000000000355 $174 6.587500000000000355 $127 $222 forward @7 unknown #
coedge $-1 -1 $-1 $210 $128 $220 $223 forward $173 $-1 #
loop $-1 -1 $-1 $-1 $128 $188 #
vertex $-1 -1 $-1 $171 $224 #
straight-curve $-1 -1 $-1 -126.7997203963197137 89.94522988436359867 -131.75 7.119888158527878375 7.021908046254558222 0 I I #
point $-1 -1 $-1 -35.59944079263938477 179.8904597687271973 -131.75 #
coedge $-1 -1 $-1 $225 $226 $227 $228 reversed $132 $-1 #
coedge $-1 -1 $-1 $229 $133 $230 $231 forward $93 $-1 #
coedge $-1 -1 $-1 $133 $232 $233 $234 forward $93 $-1 #
coedge $-1 -1 $-1 $235 $236 $133 $181 reversed $237 $-1 #
edge $-1 -1 $-1 $238 6.087500000000000355 $239 11.08750000000000036 $133 $240 forward @7 unknown #
DXID-attrib $-1 -1 $-1 $-1 $135 @10 ASM ENTITY @36 75b36437-5b29-412e-b946-b94ee3fbd2c8 #
face $241 -1 $-1 $-1 $242 $5 $-1 $243 forward single #
loop $-1 -1 $-1 $-1 $244 $135 #
plane-surface $-1 -1 $-1 1.499999999999985789 107.5 0 0 0 1 10 0 0 forward_v I I I I #
coedge $-1 -1 $-1 $245 $246 $244 $247 reversed $136 $-1 #
DXID-attrib $-1 -1 $-1 $-1 $139 @10 ASM ENTITY @36 75d10319-eae1-4f16-878d-66425e20d8db #
face $248 -1 $-1 $124 $173 $5 $-1 $249 forward single #
loop $-1 -1 $-1 $-1 $170 $139 #
plane-surface $-1 -1 $-1 -49.83921710969514152 165.8466436762180933 -131.75 -0.7119888158528027144 -0.702190804625440812 0 0 0 10 forward_v I I I I #
coedge $-1 -1 $-1 $250 $251 $169 $218 reversed $140 $-1 #
coedge $-1 -1 $-1 $252 $142 $144 $197 forward $101 $-1 #
coedge $-1 -1 $-1 $142 $252 $250 $253 reversed $101 $-1 #
coedge $-1 -1 $-1 $169 $145 $142 $195 forward $61 $-1 #
edge $-1 -1 $-1 $198 -8.337500000000000355 $254 -4.837500000000000355 $194 $255 forward @7 unknown #
coedge $-1 -1 $-1 $144 $143 $256 $257 reversed $69 $-1 #
edge $258 -1 $-1 $198 0 $259 0.05000000000000152239 $192 $260 forward @7 unknown #
vertex $-1 -1 $-1 $146 $261 #
straight-curve $-1 -1 $-1 -169.5190493474869697 47.81378160683626533 -131.75 7.119888158527878375 7.021908046254558222 0 I I #
coedge $-1 -1 $-1 $151 $256 $147 $201 forward $119 $-1 #
edge $262 -1 $-1 $203 -6 $154 -0 $147 $263 forward @7 unknown #
DXID-attrib $-1 -1 $-1 $-1 $148 @10 ASM ENTITY @36 909ac4c0-127b-4120-9f6f-e8c173dcd615 #
vertex $-1 -1 $-1 $201 $264 #
straight-curve $-1 -1 $-1 -135.277875012029682 81.58374712116338401 -131.75 -7.02190804625440812 7.119888158528027589 0 I I #
point $-1 -1 $-1 -135.277875012029682 81.58374712116338401 -131.75 #
DXID-attrib $-1 -1 $-1 $-1 $152 @10 ASM ENTITY @36 de121fe4-3746-43d3-9099-a58e712d76ee #
straight-curve $-1 -1 $-1 -50.19031251200786414 166.2026380841444961 -71.75 7.119888158527878375 7.021908046254559999 0 I I #
point $-1 -1 $-1 -135.6289704143424046 81.93974152908975839 -71.74999999999997158 #
coedge $-1 -1 $-1 $265 $160 $266 $267 forward $119 $-1 #
coedge $-1 -1 $-1 $162 $172 $160 $211 reversed $173 $-1 #
edge $268 -1 $-1 $165 -2 $269 -0 $210 $270 forward @7 unknown #
DXID-attrib $-1 -1 $-1 $-1 $161 @10 ASM ENTITY @36 7544ae59-d32b-48d8-9d39-43d69ace9b15 #
face $271 -1 $-1 $272 $237 $5 $-1 $273 forward single #
plane-surface $-1 -1 $-1 -85.78975330464830051 131.0930978528727735 -86.75 -0.702190804625440812 0.7119888158528027144 0 0 0 10 forward_v I I I I #
DXID-attrib $-1 -1 $-1 $-1 $163 @10 ASM ENTITY @36 32142bf4-cab9-4f74-b2db-f9479904b66e #
straight-curve $-1 -1 $-1 -35.59944079263938477 179.8904597687271973 -131.75 -7.02190804625440812 7.119888158528027589 0 I I #
point $-1 -1 $-1 -35.9505361949521145 180.2464541766536286 -131.75 #
edge $-1 -1 $-1 $254 1.809229242519036829 $221 11.80922924251903794 $169 $274 forward @7 unknown #
coedge $-1 -1 $-1 $266 $170 $251 $275 forward $189 $-1 #
coedge $-1 -1 $-1 $170 $266 $172 $223 reversed $189 $-1 #
vertex $-1 -1 $-1 $218 $276 #
straight-curve $-1 -1 $-1 -49.83921710969514152 165.8466436762181218 -65.875 0 0 -10 I I #
edge $277 -1 $-1 $174 0 $269 0.05000000000000089789 $172 $278 forward @7 unknown #
point $-1 -1 $-1 -49.83921710969514152 165.8466436762180933 -131.75 #
coedge $-1 -1 $-1 $279 $177 $280 $281 forward $132 $-1 #
coedge $-1 -1 $-1 $177 $279 $245 $282 reversed $132 $-1 #
coedge $-1 -1 $-1 $244 $283 $177 $228 forward $184 $-1 #
edge $284 -1 $-1 $285 -0 $286 30.61845848503807588 $227 $287 forward @7 unknown #
coedge $-1 -1 $-1 $288 $178 $289 $290 forward $93 $-1 #
coedge $-1 -1 $-1 $291 $292 $178 $231 reversed $293 $-1 #
edge $-1 -1 $-1 $239 -13.30922924251903794 $294 -10.30922924251903794 $178 $295 forward @7 unknown #
coedge $-1 -1 $-1 $179 $296 $297 $298 forward $93 $-1 #
coedge $-1 -1 $-1 $299 $300 $179 $234 reversed $301 $-1 #
edge $-1 -1 $-1 $302 -13.80922924251903794 $238 -11.80922924251903794 $179 $303 forward @7 unknown #
coedge $-1 -1 $-1 $304 $180 $300 $305 forward $237 $-1 #
coedge $-1 -1 $-1 $180 $304 $291 $306 reversed $237 $-1 #
loop $-1 -1 $-1 $-1 $180 $213 #
vertex $-1 -1 $-1 $181 $307 #
vertex $-1 -1 $-1 $181 $308 #
straight-curve $-1 -1 $-1 -49.83921710969514152 165.8466436762181218 -110.875 0 0 -10 I I #
DXID-attrib $-1 -1 $-1 $-1 $183 @10 ASM ENTITY @36 cb19da90-2040-416b-8d30-5293c25be7e1 #
loop $-1 -1 $-1 $-1 $309 $183 #
plane-surface $-1 -1 $-1 1.499999999999985789 107.5 -283.5 0 0 -1 -10 0 0 forward_v I I I I #
coedge $-1 -1 $-1 $310 $227 $186 $247 forward $184 $-1 #
coedge $-1 -1 $-1 $311 $186 $226 $282 forward $136 $-1 #
coedge $-1 -1 $-1 $186 $311 $312 $313 reversed $136 $-1 #
edge $314 -1 $-1 $286 0 $315 2.199999999999999289 $244 $316 forward @7 unknown #
DXID-attrib $-1 -1 $-1 $-1 $188 @10 ASM ENTITY @36 28255fe0-14c0-4b4c-834b-fdceb90f0a50 #
plane-surface $-1 -1 $-1 -35.59944079263938477 179.8904597687271973 -131.75 0 0 -1 -7.119888158527877486 -7.02190804625455911 0 forward_v I I I I #
coedge $-1 -1 $-1 $317 $191 $193 $253 forward $140 $-1 #
coedge $-1 -1 $-1 $191 $317 $219 $275 reversed $140 $-1 #
coedge $-1 -1 $-1 $193 $192 $318 $319 reversed $101 $-1 #
edge $320 -1 $-1 $254 0 $321 0.05000000000000152239 $250 $322 forward @7 unknown #
vertex $-1 -1 $-1 $195 $323 #
straight-curve $-1 -1 $-1 -121.0380986949739395 95.62756321367253065 -48.375 0 0 10 I I #
coedge $-1 -1 $-1 $200 $318 $196 $257 forward $119 $-1 #
edge $324 -1 $-1 $259 -2 $203 -0 $196 $325 forward @7 unknown #
DXID-attrib $-1 -1 $-1 $-1 $197 @10 ASM ENTITY @36 53e6c5c0-3386-4ae8-b32b-0ed5ccf64022 #
vertex $-1 -1 $-1 $257 $326 #
straight-curve $-1 -1 $-1 -121.0380986949739111 95.62756321367248802 -131.75 -7.02190804625440812 7.119888158528027589 0 I I #
point $-1 -1 $-1 -121.0380986949739111 95.62756321367248802 -131.75 #
DXID-attrib $-1 -1 $-1 $-1 $201 @10 ASM ENTITY @36 df68dffe-fc9c-48ed-9c89-abf6ab9cbdba #
straight-curve $-1 -1 $-1 -135.6289704143424331 81.9397415290897726 -71.75 0 0 10 I I #
point $-1 -1 $-1 -135.6289704143424046 81.93974152908975839 -131.75 #
coedge $-1 -1 $-1 $318 $209 $317 $327 forward $119 $-1 #
coedge $-1 -1 $-1 $220 $219 $209 $267 reversed $189 $-1 #
edge $328 -1 $-1 $269 -9 $329 -5.5 $266 $330 forward @7 unknown #
DXID-attrib $-1 -1 $-1 $-1 $211 @10 ASM ENTITY @36 41c078ef-e72d-454f-b6a3-23eef039c32d #
vertex $-1 -1 $-1 $267 $331 #
straight-curve $-1 -1 $-1 -50.19031251200786414 166.2026380841444961 -131.75 -7.119888158527878375 -7.021908046254559999 0 I I #
DXID-attrib $-1 -1 $-1 $-1 $213 @10 ASM ENTITY @36 9920791a-b02f-48f2-8c58-2d34294c0b85 #
face $332 -1 $-1 $333 $293 $5 $-1 $334 forward single #
plane-surface $-1 -1 $-1 -49.83921710969514152 165.8466436762180933 -221.75 -0.7119888158528027144 -0.702190804625440812 0 0 0 10 forward_v I I I I #
straight-curve $-1 -1 $-1 -133.9196085548475992 82.92332183810906088 -96.75 7.119888158527878375 7.021908046254558222 0 I I #
edge $335 -1 $-1 $221 0 $329 0.05000000000000089789 $219 $336 forward @7 unknown #
point $-1 -1 $-1 -49.83921710969514152 165.8466436762180933 -96.75 #
DXID-attrib $-1 -1 $-1 $-1 $223 @10 ASM ENTITY @36 90756b8c-3eb9-4091-9d25-8d53e309b0a7 #
straight-curve $-1 -1 $-1 -49.83921710969514152 165.8466436762180933 -131.75 -7.02190804625440812 7.119888158528027589 0 I I #
coedge $-1 -1 $-1 $226 $225 $337 $338 reversed $132 $-1 #
coedge $-1 -1 $-1 $339 $340 $225 $281 reversed $341 $-1 #
edge $342 -1 $-1 $285 0 $343 28.35000000000000142 $225 $344 forward @7 unknown #
edge $345 -1 $-1 $286 0 $346 28.35000000000000142 $245 $347 forward @7 unknown #
coedge $-1 -1 $-1 $227 $348 $339 $349 forward $184 $-1 #
DXID-attrib $-1 -1 $-1 $-1 $228 @10 ASM ENTITY @36 6f3abb3f-524c-4090-b7d5-ce046465d7aa #
vertex $-1 -1 $-1 $349 $350 #
vertex $-1 -1 $-1 $228 $351 #
straight-curve $-1 -1 $-1 0 215 0 -7.119888158527878375 -7.021908046254558222 -0 F -0 F 30.61845848503807588 #
coedge $-1 -1 $-1 $352 $229 $353 $354 forward $93 $-1 #
coedge $-1 -1 $-1 $355 $356 $229 $290 reversed $357 $-1 #
edge $-1 -1 $-1 $294 -13.58750000000000036 $358 -8.587500000000000355 $229 $359 forward @7 unknown #
coedge $-1 -1 $-1 $360 $230 $236 $306 forward $293 $-1 #
coedge $-1 -1 $-1 $230 $360 $355 $361 reversed $293 $-1 #
loop $-1 -1 $-1 $-1 $230 $272 #
vertex $-1 -1 $-1 $231 $362 #
straight-curve $-1 -1 $-1 -144.5994407926394274 72.39045976872721155 -221.75 -7.119888158527878375 -7.021908046254558222 0 I I #
coedge $-1 -1 $-1 $232 $363 $364 $365 forward $93 $-1 #
coedge $-1 -1 $-1 $366 $367 $232 $298 reversed $368 $-1 #
edge $-1 -1 $-1 $369 -15.58750000000000036 $302 -8.587500000000000355 $232 $370 forward @7 unknown #
coedge $-1 -1 $-1 $371 $233 $367 $372 forward $301 $-1 #
coedge $-1 -1 $-1 $233 $371 $235 $305 reversed $301 $-1 #
loop $-1 -1 $-1 $-1 $233 $373 #
vertex $-1 -1 $-1 $298 $374 #
straight-curve $-1 -1 $-1 -133.9196085548475992 82.92332183810904667 -171.75 -7.119888158527878375 -7.021908046254558222 0 I I #
coedge $-1 -1 $-1 $236 $235 $375 $376 reversed $237 $-1 #
edge $377 -1 $-1 $238 0 $378 0.05000000000000089789 $300 $379 forward @7 unknown #
edge $380 -1 $-1 $239 0 $381 0.05000000000000089789 $291 $382 forward @7 unknown #
point $-1 -1 $-1 -49.83921710969514152 165.8466436762180933 -171.75 #
point $-1 -1 $-1 -49.83921710969514152 165.8466436762180933 -221.75 #
coedge $-1 -1 $-1 $337 $383 $311 $384 forward $242 $-1 #
coedge $-1 -1 $-1 $385 $244 $386 $387 forward $184 $-1 #
coedge $-1 -1 $-1 $246 $245 $309 $384 reversed $136 $-1 #
coedge $-1 -1 $-1 $388 $386 $246 $313 forward $389 $-1 #
edge $390 -1 $-1 $315 0 $391 28.35000000000000142 $246 $392 forward @7 unknown #
DXID-attrib $-1 -1 $-1 $-1 $247 @10 ASM ENTITY @36 8d2521f0-7e8e-4722-bd39-0615fc134e53 #
vertex $-1 -1 $-1 $387 $393 #
straight-curve $-1 -1 $-1 -218 0 0 10 0 0 F 0 F 2.199999999999999289 #
coedge $-1 -1 $-1 $251 $250 $265 $327 reversed $140 $-1 #
coedge $-1 -1 $-1 $256 $265 $252 $319 forward $119 $-1 #
edge $394 -1 $-1 $321 -3.5 $259 -0 $252 $395 forward @7 unknown #
DXID-attrib $-1 -1 $-1 $-1 $253 @10 ASM ENTITY @36 d5f0b4cb-1a0b-40a3-a554-4f55caeec18c #
vertex $-1 -1 $-1 $319 $396 #
straight-curve $-1 -1 $-1 -121.0380986949739111 95.62756321367248802 -96.75 -7.02190804625440812 7.119888158528027589 0 I I #
point $-1 -1 $-1 -121.0380986949739111 95.62756321367248802 -96.75 #
DXID-attrib $-1 -1 $-1 $-1 $257 @10 ASM ENTITY @36 293a4e28-890d-4538-b2aa-613d59bac208 #
straight-curve $-1 -1 $-1 -135.6289704143424331 81.9397415290897726 -131.75 -7.119888158527878375 -7.021908046254559999 -0 I I #
point $-1 -1 $-1 -121.3891940972866479 95.98355762159890503 -131.75 #
edge $397 -1 $-1 $329 -10.00000000000000178 $321 -0 $317 $398 forward @7 unknown #
DXID-attrib $-1 -1 $-1 $-1 $267 @10 ASM ENTITY @36 206d0027-6425-4bc7-98f1-c22100691b28 #
vertex $-1 -1 $-1 $327 $399 #
straight-curve $-1 -1 $-1 -50.19031251200786414 166.2026380841444961 -41.75000000000000711 0 0 10 I I #
point $-1 -1 $-1 -50.19031251200787125 166.2026380841444961 -131.75 #
DXID-attrib $-1 -1 $-1 $-1 $272 @10 ASM ENTITY @36 1dc3b18d-753d-46f0-a6c0-825d250f0c57 #
face $400 -1 $-1 $401 $357 $5 $-1 $402 forward single #
plane-surface $-1 -1 $-1 -71.19888158527878375 144.7809195374543947 -221.75 0 0 1 7.119888158527877486 7.021908046254559999 0 forward_v I I I I #
DXID-attrib $-1 -1 $-1 $-1 $275 @10 ASM ENTITY @36 9b7bd822-9c2a-4ee9-be94-9aff3d26a81f #
straight-curve $-1 -1 $-1 -49.83921710969514152 165.8466436762180933 -96.75 -7.02190804625440812 7.119888158528027589 0 I I #
coedge $-1 -1 $-1 $403 $309 $279 $338 forward $242 $-1 #
edge $404 -1 $-1 $346 -30.61845848503807588 $343 0 $279 $405 forward @7 unknown #
coedge $-1 -1 $-1 $406 $280 $283 $349 reversed $341 $-1 #
coedge $-1 -1 $-1 $280 $406 $403 $407 reversed $341 $-1 #
loop $-1 -1 $-1 $-1 $339 $408 #
DXID-attrib $-1 -1 $-1 $-1 $281 @10 ASM ENTITY @36 bc95eb7d-f583-4ccc-a495-59ac8997c8ab #
vertex $-1 -1 $-1 $407 $409 #
straight-curve $-1 -1 $-1 0 215 0 0 0 -10 I I #
DXID-attrib $-1 -1 $-1 $-1 $282 @10 ASM ENTITY @36 999bf61e-7d82-4531-96fb-910496fa32d3 #
vertex $-1 -1 $-1 $338 $410 #
straight-curve $-1 -1 $-1 -218 0 0 0 0 -10 I I #
coedge $-1 -1 $-1 $283 $411 $412 $413 forward $184 $-1 #
edge $414 -1 $-1 $415 0 $285 30.83277476971542441 $283 $416 forward @7 unknown #
point $-1 -1 $-1 0 215 0 #
point $-1 -1 $-1 -218 0 0 #
coedge $-1 -1 $-1 $417 $288 $418 $419 forward $93 $-1 #
coedge $-1 -1 $-1 $420 $421 $288 $354 reversed $422 $-1 #
edge $-1 -1 $-1 $358 -14.80922924251903794 $423 -5.809229242519038827 $288 $424 forward @7 unknown #
coedge $-1 -1 $-1 $425 $289 $292 $361 forward $357 $-1 #
coedge $-1 -1 $-1 $289 $425 $420 $426 reversed $357 $-1 #
loop $-1 -1 $-1 $-1 $289 $333 #
vertex $-1 -1 $-1 $290 $427 #
straight-curve $-1 -1 $-1 -71.19888158527876953 144.7809195374544231 -85.875 0 0 10 I I #
coedge $-1 -1 $-1 $292 $291 $428 $429 reversed $293 $-1 #
edge $430 -1 $-1 $294 0 $431 0.05000000000000089789 $355 $432 forward @7 unknown #
point $-1 -1 $-1 -71.19888158527876953 144.7809195374543947 -221.75 #
coedge $-1 -1 $-1 $296 $433 $434 $435 forward $93 $-1 #
coedge $-1 -1 $-1 $436 $437 $296 $365 reversed $438 $-1 #
edge $-1 -1 $-1 $439 5.809229242519037939 $369 12.80922924251903794 $296 $440 forward @7 unknown #
coedge $-1 -1 $-1 $441 $297 $437 $442 forward $368 $-1 #
coedge $-1 -1 $-1 $297 $441 $299 $372 reversed $368 $-1 #
loop $-1 -1 $-1 $-1 $297 $443 #
vertex $-1 -1 $-1 $365 $444 #
straight-curve $-1 -1 $-1 -35.59944079263937056 179.8904597687272258 -85.875 0 0 10 I I #
coedge $-1 -1 $-1 $300 $299 $445 $446 reversed $301 $-1 #
edge $447 -1 $-1 $302 0 $448 0.05000000000000121014 $299 $449 forward @7 unknown #
face $450 -1 $-1 $451 $301 $5 $-1 $452 forward single #
point $-1 -1 $-1 -35.59944079263938477 179.8904597687271973 -171.75 #
coedge $-1 -1 $-1 $445 $428 $304 $376 forward $453 $-1 #
edge $454 -1 $-1 $381 -5 $378 -0 $304 $455 forward @7 unknown #
DXID-attrib $-1 -1 $-1 $-1 $305 @10 ASM ENTITY @36 ac226765-6b46-47e9-aa33-c29787f6fad4 #
vertex $-1 -1 $-1 $305 $456 #
straight-curve $-1 -1 $-1 -49.83921710969514152 165.8466436762180933 -171.75 -7.02190804625440812 7.119888158528027589 0 I I #
DXID-attrib $-1 -1 $-1 $-1 $306 @10 ASM ENTITY @36 74490cce-04ee-445d-a552-9869b170f062 #
vertex $-1 -1 $-1 $376 $457 #
straight-curve $-1 -1 $-1 -49.83921710969514152 165.8466436762180933 -221.75 -7.02190804625440812 7.119888158528027589 0 I I #
coedge $-1 -1 $-1 $309 $458 $388 $459 forward $242 $-1 #
edge $460 -1 $-1 $391 -2.199999999999999289 $346 -0 $311 $461 forward @7 unknown #
coedge $-1 -1 $-1 $411 $310 $462 $463 forward $184 $-1 #
coedge $-1 -1 $-1 $312 $464 $310 $387 reversed $389 $-1 #
edge $465 -1 $-1 $315 7.958994999175001084 $466 35.67758082168766975 $310 $467 forward @7 unknown #
coedge $-1 -1 $-1 $464 $312 $383 $459 reversed $389 $-1 #
loop $-1 -1 $-1 $-1 $386 $468 #
DXID-attrib $-1 -1 $-1 $-1 $313 @10 ASM ENTITY @36 af19b878-287e-47fd-be6a-c6016c03b0d1 #
vertex $-1 -1 $-1 $313 $469 #
straight-curve $-1 -1 $-1 -196 0 0 0 0 -10 I I #
point $-1 -1 $-1 -196 0 0 #
DXID-attrib $-1 -1 $-1 $-1 $319 @10 ASM ENTITY @36 94d90276-ad95-44ab-a66d-3766c6d45e59 #
straight-curve $-1 -1 $-1 -121.3891940972866621 95.98355762159889082 -131.75 -0 -0 -10 I I #
point $-1 -1 $-1 -121.3891940972866479 95.98355762159890503 -96.74999999999998579 #
DXID-attrib $-1 -1 $-1 $-1 $327 @10 ASM ENTITY @36 f2c6495d-c42e-4c54-9f32-3683618cbf0c #
straight-curve $-1 -1 $-1 -121.3891940972866621 95.98355762159889082 -96.75 -7.119888158527880151 -7.021908046254560887 -0 I I #
point $-1 -1 $-1 -50.19031251200787125 166.2026380841444961 -96.74999999999998579 #
DXID-attrib $-1 -1 $-1 $-1 $333 @10 ASM ENTITY @36 24b8f1cf-3df8-4deb-9d4c-c31db3a95fe5 #
face $470 -1 $-1 $471 $422 $5 $-1 $472 forward single #
plane-surface $-1 -1 $-1 -71.19888158527876953 144.7809195374543947 -171.75 0.7119888158528027144 0.702190804625440812 0 0 0 -10 forward_v I I I I #
coedge $-1 -1 $-1 $473 $337 $340 $407 forward $242 $-1 #
DXID-attrib $-1 -1 $-1 $-1 $338 @10 ASM ENTITY @36 1a753760-7d55-4770-ba3c-27b1338b8572 #
straight-curve $-1 -1 $-1 0 215 -283.5 7.119888158527878375 7.021908046254558222 0 I I #
coedge $-1 -1 $-1 $340 $339 $474 $475 forward $341 $-1 #
edge $476 -1 $-1 $343 -30.83277476971542441 $477 -0 $340 $478 forward @7 unknown #
face $479 -1 $-1 $65 $341 $5 $-1 $480 forward single #
point $-1 -1 $-1 0 215 -283.5 #
point $-1 -1 $-1 -218 0 -283.5 #
coedge $-1 -1 $-1 $348 $385 $481 $482 forward $184 $-1 #
coedge $-1 -1 $-1 $483 $474 $348 $413 reversed $484 $-1 #
edge $485 -1 $-1 $486 0 $415 2.5 $348 $487 forward @7 unknown #
DXID-attrib $-1 -1 $-1 $-1 $349 @10 ASM ENTITY @36 08f6a9a1-9666-4295-9061-0aff0d88c2f6 #
vertex $-1 -1 $-1 $413 $488 #
straight-curve $-1 -1 $-1 221 0 0 -7.167697414540539214 6.973099294688759109 0 F 0 F 30.83277476971542441 #
coedge $-1 -1 $-1 $489 $352 $490 $491 forward $93 $-1 #
coedge $-1 -1 $-1 $492 $493 $352 $419 reversed $494 $-1 #
edge $-1 -1 $-1 $423 5.087500000000000355 $495 12.08750000000000036 $352 $496 forward @7 unknown #
coedge $-1 -1 $-1 $497 $353 $356 $426 forward $422 $-1 #
coedge $-1 -1 $-1 $353 $497 $492 $498 reversed $422 $-1 #
loop $-1 -1 $-1 $-1 $353 $401 #
vertex $-1 -1 $-1 $354 $499 #
straight-curve $-1 -1 $-1 -176.6389375060148836 40.79187356058170622 -171.75 -7.119888158527878375 -7.021908046254558222 0 I I #
coedge $-1 -1 $-1 $356 $355 $500 $501 reversed $357 $-1 #
edge $502 -1 $-1 $358 0 $503 0.05000000000000089789 $420 $504 forward @7 unknown #
point $-1 -1 $-1 -71.19888158527876953 144.7809195374543947 -171.75 #
coedge $-1 -1 $-1 $375 $500 $360 $429 forward $453 $-1 #
edge $505 -1 $-1 $431 -3 $381 6.323731013082924747e-16 $360 $506 forward @7 unknown #
DXID-attrib $-1 -1 $-1 $-1 $361 @10 ASM ENTITY @36 f85ac59a-184b-42cc-b200-eca80fa2e9a5 #
vertex $-1 -1 $-1 $429 $507 #
straight-curve $-1 -1 $-1 -71.19888158527876953 144.7809195374543947 -221.75 -7.02190804625440812 7.119888158528027589 0 I I #
coedge $-1 -1 $-1 $363 $489 $508 $509 forward $93 $-1 #
coedge $-1 -1 $-1 $510 $511 $363 $435 reversed $512 $-1 #
edge $-1 -1 $-1 $513 7.087500000000000355 $439 12.08750000000000036 $363 $514 forward @7 unknown #
coedge $-1 -1 $-1 $515 $364 $511 $516 forward $438 $-1 #
coedge $-1 -1 $-1 $364 $515 $366 $442 reversed $438 $-1 #
loop $-1 -1 $-1 $-1 $364 $517 #
vertex $-1 -1 $-1 $435 $518 #
straight-curve $-1 -1 $-1 -126.7997203963197137 89.94522988436361288 -241.75 7.119888158527878375 7.021908046254558222 0 I I #
coedge $-1 -1 $-1 $367 $366 $519 $520 reversed $368 $-1 #
edge $521 -1 $-1 $369 0 $522 0.05000000000000121014 $366 $523 forward @7 unknown #
face $524 -1 $-1 $373 $368 $5 $-1 $525 forward single #
point $-1 -1 $-1 -35.59944079263938477 179.8904597687271973 -241.75 #
coedge $-1 -1 $-1 $519 $375 $371 $446 forward $453 $-1 #
edge $526 -1 $-1 $378 -2 $448 -0 $371 $527 forward @7 unknown #
DXID-attrib $-1 -1 $-1 $-1 $372 @10 ASM ENTITY @36 b2caa5f7-6f68-4f25-85dd-4d89cbe54edd #
vertex $-1 -1 $-1 $520 $528 #
straight-curve $-1 -1 $-1 -35.59944079263938477 179.8904597687271973 -171.75 -7.02190804625440812 7.119888158528027589 0 I I #
DXID-attrib $-1 -1 $-1 $-1 $373 @10 ASM ENTITY @36 ac853aee-3c6f-4d10-b371-527501a83a1e #
face $529 -1 $-1 $468 $453 $5 $-1 $530 forward single #
plane-surface $-1 -1 $-1 -49.83921710969514152 165.8466436762180933 -171.75 0 0 1 7.119888158527877486 7.02190804625455911 0 forward_v I I I I #
loop $-1 -1 $-1 $-1 $445 $451 #
DXID-attrib $-1 -1 $-1 $-1 $376 @10 ASM ENTITY @36 227e799f-cd08-4bea-b957-74bb125247c9 #
straight-curve $-1 -1 $-1 -50.19031251200786414 166.2026380841444961 -171.75 0 0 10 I I #
point $-1 -1 $-1 -50.19031251200787125 166.2026380841444961 -171.75 #
point $-1 -1 $-1 -50.19031251200787125 166.2026380841444961 -221.7500000000000568 #
coedge $-1 -1 $-1 $383 $531 $532 $533 forward $242 $-1 #
edge $534 -1 $-1 $535 -35.67758082168766975 $391 -7.958994999175001084 $388 $536 forward @7 unknown #
DXID-attrib $-1 -1 $-1 $-1 $384 @10 ASM ENTITY @36 4118717a-a3ad-450a-b1e0-a85f789d0c62 #
straight-curve $-1 -1 $-1 -218 0 -283.5 -10 0 0 I I #
coedge $-1 -1 $-1 $537 $538 $385 $463 reversed $539 $-1 #
edge $540 -1 $-1 $466 3.456157166465069948e-18 $541 15.11480407277817051 $385 $542 forward @7 unknown #
coedge $-1 -1 $-1 $386 $388 $537 $543 reversed $389 $-1 #
DXID-attrib $-1 -1 $-1 $-1 $387 @10 ASM ENTITY @36 305072ea-f222-450a-ad97-75b4dc2811ae #
vertex $-1 -1 $-1 $387 $544 #
straight-curve $-1 -1 $-1 -252.2785933534646574 -56.27859335346462899 0 7.071067811865475505 7.071067811865475505 0 F 7.958994999175001084 F 35.67758082168766975 #
face $545 -1 $-1 $546 $389 $5 $-1 $547 forward single #
point $-1 -1 $-1 -196 0 -283.5 #
DXID-attrib $-1 -1 $-1 $-1 $401 @10 ASM ENTITY @36 678bf694-5f34-4272-8579-a8e88696a97b #
face $548 -1 $-1 $549 $494 $5 $-1 $550 forward single #
plane-surface $-1 -1 $-1 -135.277875012029682 81.58374712116338401 -171.75 0 0 1 7.119888158527877486 7.02190804625455911 0 forward_v I I I I #
coedge $-1 -1 $-1 $531 $403 $551 $552 forward $242 $-1 #
coedge $-1 -1 $-1 $412 $551 $406 $475 reversed $484 $-1 #
edge $553 -1 $-1 $415 0 $477 28.35000000000000142 $406 $554 forward @7 unknown #
DXID-attrib $-1 -1 $-1 $-1 $407 @10 ASM ENTITY @36 ccf6d55b-083b-4d6d-b00e-777d99aa2c93 #
vertex $-1 -1 $-1 $552 $555 #
straight-curve $-1 -1 $-1 221 0 -283.5 7.167697414540539214 -6.973099294688759109 0 I I #
DXID-attrib $-1 -1 $-1 $-1 $408 @10 ASM ENTITY @36 f3664aaa-b62f-4ffb-9c56-c91e4c06a567 #
plane-surface $-1 -1 $-1 0 215 0 0.6973099294688759331 0.7167697414540539214 0 7.167697414540539214 -6.973099294688759109 0 forward_v I I I I #
coedge $-1 -1 $-1 $556 $557 $411 $482 reversed $558 $-1 #
edge $559 -1 $-1 $541 0 $486 12.60384725616800772 $411 $560 forward @7 unknown #
coedge $-1 -1 $-1 $551 $412 $557 $561 forward $484 $-1 #
loop $-1 -1 $-1 $-1 $412 $562 #
DXID-attrib $-1 -1 $-1 $-1 $413 @10 ASM ENTITY @36 a062d469-5526-4afd-a1d3-c9ccecf33dab #
vertex $-1 -1 $-1 $482 $563 #
straight-curve $-1 -1 $-1 196 0 0 10 0 0 F 0 F 2.5 #
point $-1 -1 $-1 221 0 0 #
coedge $-1 -1 $-1 $433 $417 $564 $565 forward $93 $-1 #
coedge $-1 -1 $-1 $566 $567 $417 $491 reversed $568 $-1 #
edge $-1 -1 $-1 $495 4.809229242519036163 $569 6.809229242519036163 $417 $570 forward @7 unknown #
coedge $-1 -1 $-1 $571 $418 $421 $498 forward $494 $-1 #
coedge $-1 -1 $-1 $418 $571 $566 $572 reversed $494 $-1 #
loop $-1 -1 $-1 $-1 $418 $471 #
vertex $-1 -1 $-1 $419 $573 #
straight-curve $-1 -1 $-1 -135.277875012029682 81.58374712116341243 -120.875 0 0 -10 I I #
coedge $-1 -1 $-1 $421 $420 $574 $575 reversed $422 $-1 #
edge $576 -1 $-1 $423 0 $577 0.05000000000000152239 $492 $578 forward @7 unknown #
point $-1 -1 $-1 -135.277875012029682 81.58374712116338401 -171.75 #
coedge $-1 -1 $-1 $428 $574 $425 $501 forward $453 $-1 #
edge $579 -1 $-1 $503 -5 $431 -0 $425 $580 forward @7 unknown #
DXID-attrib $-1 -1 $-1 $-1 $426 @10 ASM ENTITY @36 f7208132-ac00-420a-8615-b9b07d63a0af #
vertex $-1 -1 $-1 $501 $581 #
straight-curve $-1 -1 $-1 -71.19888158527876953 144.7809195374543947 -171.75 -7.02190804625440812 7.119888158528027589 0 I I #
DXID-attrib $-1 -1 $-1 $-1 $429 @10 ASM ENTITY @36 4a554bb8-934b-4702-89c4-b9d5acbf0691 #
straight-curve $-1 -1 $-1 -50.19031251200787125 166.2026380841444961 -221.75 7.119888158527878375 7.021908046254559999 0 I I #
point $-1 -1 $-1 -71.54997698759152058 145.1369139453808259 -221.7500000000000568 #
coedge $-1 -1 $-1 $582 $583 $433 $509 reversed $584 $-1 #
edge $-1 -1 $-1 $585 4.309229242519037939 $513 9.309229242519037939 $433 $586 forward @7 unknown #
coedge $-1 -1 $-1 $587 $434 $583 $588 forward $512 $-1 #
coedge $-1 -1 $-1 $434 $587 $436 $516 reversed $512 $-1 #
loop $-1 -1 $-1 $-1 $434 $589 #
vertex $-1 -1 $-1 $509 $590 #
straight-curve $-1 -1 $-1 -85.43865790233452628 130.7371034449453191 -120.875 0 0 -10 I I #
coedge $-1 -1 $-1 $437 $436 $591 $592 reversed $438 $-1 #
edge $593 -1 $-1 $439 0 $594 0.05000000000000152239 $436 $595 forward @7 unknown #
face $596 -1 $-1 $443 $438 $5 $-1 $597 forward single #
point $-1 -1 $-1 -85.43865790233452628 130.7371034449452907 -241.75 #
coedge $-1 -1 $-1 $591 $445 $441 $520 forward $453 $-1 #
edge $598 -1 $-1 $448 -7 $522 -0 $441 $599 forward @7 unknown #
DXID-attrib $-1 -1 $-1 $-1 $442 @10 ASM ENTITY @36 292bc095-9186-4e9d-951b-fc6bd4087903 #
vertex $-1 -1 $-1 $592 $600 #
straight-curve $-1 -1 $-1 -35.59944079263938477 179.8904597687271973 -241.75 -7.02190804625440812 7.119888158528027589 0 I I #
DXID-attrib $-1 -1 $-1 $-1 $443 @10 ASM ENTITY @36 e57f759a-d52d-4240-8f13-fd871af103c7 #
plane-surface $-1 -1 $-1 -35.59944079263938477 179.8904597687271973 -171.75 0.7119888158528027144 0.702190804625440812 0 0 0 -10 forward_v I I I I #
DXID-attrib $-1 -1 $-1 $-1 $446 @10 ASM ENTITY @36 7ebb6eca-404f-4f43-8ee7-d5a1b6a848b8 #
straight-curve $-1 -1 $-1 -35.9505361949521145 180.2464541766536286 -171.75 7.119888158527878375 7.021908046254559999 0 I I #
point $-1 -1 $-1 -35.9505361949521145 180.2464541766536286 -171.75 #
DXID-attrib $-1 -1 $-1 $-1 $451 @10 ASM ENTITY @36 36b9963e-e2f4-4bb4-a99d-e3058d707959 #
plane-surface $-1 -1 $-1 -85.78975330464830051 131.0930978528727735 -206.75 -0.702190804625440812 0.7119888158528027144 0 0 0 10 forward_v I I I I #
coedge $-1 -1 $-1 $458 $473 $601 $602 forward $242 $-1 #
coedge $-1 -1 $-1 $538 $537 $458 $533 reversed $539 $-1 #
edge $603 -1 $-1 $604 -15.11480407277817051 $535 -3.456157166465069948e-18 $532 $605 forward @7 unknown #
DXID-attrib $-1 -1 $-1 $-1 $459 @10 ASM ENTITY @36 399809a8-8279-4d7d-a4a3-be7caabf3e06 #
vertex $-1 -1 $-1 $459 $606 #
straight-curve $-1 -1 $-1 -252.2785933534646574 -56.27859335346462899 -283.5 -7.071067811865475505 -7.071067811865475505 -0 I I #
coedge $-1 -1 $-1 $532 $462 $464 $543 forward $539 $-1 #
coedge $-1 -1 $-1 $462 $532 $556 $607 reversed $539 $-1 #
loop $-1 -1 $-1 $-1 $462 $546 #
DXID-attrib $-1 -1 $-1 $-1 $463 @10 ASM ENTITY @36 875ad2e3-c512-4b32-b9bc-c0de7982d3b7 #
vertex $-1 -1 $-1 $463 $608 #
straight-curve $-1 -1 $-1 0 196 0 7.057015853535895999 -7.085091900811382182 0 F 3.456157166465069948e-18 F 15.11480407277817051 #
edge $609 -1 $-1 $466 0 $535 28.35000000000000142 $537 $610 forward @7 unknown #
point $-1 -1 $-1 4.897476834678460921e-17 196 0 #
DXID-attrib $-1 -1 $-1 $-1 $468 @10 ASM ENTITY @36 5cad13a4-9ae6-4c8e-9d16-36333b14253f #
face $611 -1 $-1 $612 $539 $5 $-1 $613 forward single #
plane-surface $-1 -1 $-1 3.552713678800500929e-14 196.0000000000000853 0 0.7071067811865475727 -0.7071067811865475727 0 -7.071067811865475505 -7.071067811865475505 -0 forward_v I I I I #
DXID-attrib $-1 -1 $-1 $-1 $471 @10 ASM ENTITY @36 64e0ced0-fa31-47d6-b18a-b1538ee1d2b5 #
face $614 -1 $-1 $615 $568 $5 $-1 $616 forward single #
plane-surface $-1 -1 $-1 -135.277875012029682 81.58374712116338401 -241.75 -0.7119888158528027144 -0.702190804625440812 0 0 0 10 forward_v I I I I #
coedge $-1 -1 $-1 $474 $483 $473 $552 reversed $484 $-1 #
edge $617 -1 $-1 $477 -2.5 $618 -0 $551 $619 forward @7 unknown #
DXID-attrib $-1 -1 $-1 $-1 $475 @10 ASM ENTITY @36 4dfc3b49-2bb8-440d-825d-ad14936c8273 #
straight-curve $-1 -1 $-1 221 0 0 0 0 -10 I I #
point $-1 -1 $-1 221.0000000000000568 0 -283.5 #
coedge $-1 -1 $-1 $601 $481 $538 $607 forward $558 $-1 #
coedge $-1 -1 $-1 $481 $601 $483 $561 reversed $558 $-1 #
loop $-1 -1 $-1 $-1 $481 $612 #
DXID-attrib $-1 -1 $-1 $-1 $482 @10 ASM ENTITY @36 373e973d-5309-4896-841b-617a70754b5a #
straight-curve $-1 -1 $-1 106.6654119646844663 88.91022408160851853 0 7.087882471092104453 -7.054213072766181369 0 F 0 F 12.60384725616800772 #
edge $620 -1 $-1 $486 0 $618 28.35000000000000142 $483 $621 forward @7 unknown #
face $622 -1 $-1 $408 $484 $5 $-1 $623 forward single #
point $-1 -1 $-1 196 0 0 #
coedge $-1 -1 $-1 $624 $625 $489 $565 reversed $626 $-1 #
edge $-1 -1 $-1 $569 -14.58750000000000036 $585 -9.587500000000000355 $489 $627 forward @7 unknown #
coedge $-1 -1 $-1 $628 $490 $493 $572 forward $568 $-1 #
coedge $-1 -1 $-1 $490 $628 $624 $629 reversed $568 $-1 #
loop $-1 -1 $-1 $-1 $490 $549 #
vertex $-1 -1 $-1 $491 $630 #
straight-curve $-1 -1 $-1 -169.5190493474869697 47.81378160683626533 -241.75 7.119888158527878375 7.021908046254558222 0 I I #
coedge $-1 -1 $-1 $493 $492 $631 $632 reversed $494 $-1 #
edge $633 -1 $-1 $495 0 $634 0.05000000000000152239 $566 $635 forward @7 unknown #
point $-1 -1 $-1 -135.277875012029682 81.58374712116338401 -241.75 #
coedge $-1 -1 $-1 $500 $631 $497 $575 forward $453 $-1 #
edge $636 -1 $-1 $577 -9 $503 0 $497 $637 forward @7 unknown #
DXID-attrib $-1 -1 $-1 $-1 $498 @10 ASM ENTITY @36 31e2d8f7-68e0-42b2-b99f-39804f772757 #
vertex $-1 -1 $-1 $575 $638 #
straight-curve $-1 -1 $-1 -135.277875012029682 81.58374712116338401 -171.75 -7.02190804625440812 7.119888158528027589 0 I I #
DXID-attrib $-1 -1 $-1 $-1 $501 @10 ASM ENTITY @36 7b328351-9388-4bc2-b72c-e0c1f4761057 #
straight-curve $-1 -1 $-1 -71.54997698759150637 145.1369139453808259 -221.75 0 0 -10 I I #
point $-1 -1 $-1 -71.54997698759152058 145.1369139453808259 -171.75 #
coedge $-1 -1 $-1 $639 $508 $625 $640 forward $584 $-1 #
coedge $-1 -1 $-1 $508 $639 $510 $588 reversed $584 $-1 #
loop $-1 -1 $-1 $-1 $508 $641 #
vertex $-1 -1 $-1 $565 $642 #
straight-curve $-1 -1 $-1 -151.7193289511672845 65.36855172247265955 -191.75 7.119888158527878375 7.021908046254558222 0 I I #
coedge $-1 -1 $-1 $511 $510 $643 $644 reversed $512 $-1 #
edge $645 -1 $-1 $513 0 $646 0.05000000000000152239 $510 $647 forward @7 unknown #
face $648 -1 $-1 $517 $512 $5 $-1 $649 forward single #
point $-1 -1 $-1 -85.43865790233452628 130.7371034449452907 -191.75 #
coedge $-1 -1 $-1 $643 $519 $515 $592 forward $453 $-1 #
edge $650 -1 $-1 $522 -7 $594 -0 $515 $651 forward @7 unknown #
DXID-attrib $-1 -1 $-1 $-1 $516 @10 ASM ENTITY @36 71d796f7-ccbb-4855-a4c7-20aaaca4b6a1 #
vertex $-1 -1 $-1 $644 $652 #
straight-curve $-1 -1 $-1 -85.43865790233452628 130.7371034449452907 -241.75 -7.02190804625440812 7.119888158528027589 0 I I #
DXID-attrib $-1 -1 $-1 $-1 $517 @10 ASM ENTITY @36 b7b597c6-d8e5-4751-b6cd-42f157f0060c #
plane-surface $-1 -1 $-1 -35.59944079263937056 179.8904597687271973 -241.75 0 0 -1 -7.119888158527878375 -7.02190804625455911 0 forward_v I I I I #
DXID-attrib $-1 -1 $-1 $-1 $520 @10 ASM ENTITY @36 08a93725-2223-4f89-9253-e5ad9e0716d2 #
straight-curve $-1 -1 $-1 -35.9505361949521145 180.2464541766536286 -241.75 0 0 -10 I I #
point $-1 -1 $-1 -35.9505361949521145 180.2464541766536286 -241.7500000000000568 #
coedge $-1 -1 $-1 $557 $556 $531 $602 reversed $558 $-1 #
edge $653 -1 $-1 $618 -12.60384725616800772 $604 -0 $601 $654 forward @7 unknown #
DXID-attrib $-1 -1 $-1 $-1 $533 @10 ASM ENTITY @36 eed9509d-d49a-468b-b390-cb012162b6bb #
vertex $-1 -1 $-1 $533 $655 #
straight-curve $-1 -1 $-1 0 196 -283.5 -7.057015853535895999 7.085091900811382182 0 I I #
point $-1 -1 $-1 0 196 -283.5 #
edge $656 -1 $-1 $541 0 $604 28.35000000000000142 $556 $657 forward @7 tangent #
point $-1 -1 $-1 106.6654119646844663 88.91022408160851853 0 #
DXID-attrib $-1 -1 $-1 $-1 $543 @10 ASM ENTITY @36 80455d02-aae6-464b-aed1-3ca280cd6d27 #
straight-curve $-1 -1 $-1 4.897476834678460921e-17 196 0 0 0 -10 I I #
DXID-attrib $-1 -1 $-1 $-1 $546 @10 ASM ENTITY @36 94b6d3c6-85d2-4f82-9bf7-da23e8540443 #
face $658 -1 $-1 $562 $558 $5 $-1 $659 forward single #
plane-surface $-1 -1 $-1 106.6654119646844663 88.91022408160850432 0 -0.7085091900811382182 -0.7057015853535896222 -0 -7.057015853535895999 7.085091900811382182 0 forward_v I I I I #
DXID-attrib $-1 -1 $-1 $-1 $549 @10 ASM ENTITY @36 5b83fc0a-5a7b-44aa-aa46-f58472864e97 #
face $660 -1 $-1 $641 $626 $5 $-1 $661 forward single #
plane-surface $-1 -1 $-1 -121.0380986949739111 95.62756321367248802 -241.75 0 0 -1 -7.119888158527877486 -7.02190804625455911 0 forward_v I I I I #
DXID-attrib $-1 -1 $-1 $-1 $552 @10 ASM ENTITY @36 f426fb7f-d47c-4367-b48b-92607669eaa9 #
vertex $-1 -1 $-1 $602 $662 #
straight-curve $-1 -1 $-1 196 0 -283.5 -10 -0 -0 I I #
DXID-attrib $-1 -1 $-1 $-1 $561 @10 ASM ENTITY @36 5987d87e-4725-4825-ade6-907ac54d21f6 #
straight-curve $-1 -1 $-1 196 0 0 0 0 -10 I I #
DXID-attrib $-1 -1 $-1 $-1 $562 @10 ASM ENTITY @36 33948e85-69e6-414c-837a-7f8ec453fcb7 #
plane-surface $-1 -1 $-1 221 0 0 0 -1 0 -10 -0 -0 forward_v I I I I #
coedge $-1 -1 $-1 $663 $564 $567 $629 forward $626 $-1 #
coedge $-1 -1 $-1 $564 $663 $582 $640 reversed $626 $-1 #
loop $-1 -1 $-1 $-1 $564 $615 #
straight-curve $-1 -1 $-1 -121.0380986949739395 95.62756321367253065 -95.875 0 0 10 I I #
coedge $-1 -1 $-1 $567 $566 $664 $665 reversed $568 $-1 #
edge $666 -1 $-1 $569 0 $667 0.05000000000000152239 $624 $668 forward @7 unknown #
point $-1 -1 $-1 -121.0380986949739111 95.62756321367248802 -241.75 #
coedge $-1 -1 $-1 $574 $664 $571 $632 forward $453 $-1 #
edge $669 -1 $-1 $634 -7 $577 0 $571 $670 forward @7 unknown #
DXID-attrib $-1 -1 $-1 $-1 $572 @10 ASM ENTITY @36 d5ce8410-0225-413c-a2c4-270cfb6eb0bf #
vertex $-1 -1 $-1 $632 $671 #
straight-curve $-1 -1 $-1 -135.277875012029682 81.58374712116338401 -241.75 -7.02190804625440812 7.119888158528027589 0 I I #
DXID-attrib $-1 -1 $-1 $-1 $575 @10 ASM ENTITY @36 fb7926f3-d92c-4cd8-8b9f-362be024635a #
straight-curve $-1 -1 $-1 -71.54997698759150637 145.1369139453808259 -171.75 7.119888158527878375 7.021908046254559999 0 I I #
point $-1 -1 $-1 -135.6289704143424046 81.93974152908975839 -171.75 #
coedge $-1 -1 $-1 $583 $582 $672 $673 reversed $584 $-1 #
edge $674 -1 $-1 $585 0 $675 0.05000000000000152239 $582 $676 forward @7 unknown #
face $677 -1 $-1 $589 $584 $5 $-1 $678 forward single #
point $-1 -1 $-1 -121.0380986949739111 95.62756321367248802 -191.75 #
coedge $-1 -1 $-1 $672 $591 $587 $644 forward $453 $-1 #
edge $679 -1 $-1 $594 -5 $646 0 $587 $680 forward @7 unknown #
DXID-attrib $-1 -1 $-1 $-1 $588 @10 ASM ENTITY @36 e9fe4748-e700-4d03-8a20-fcdcf24fed19 #
vertex $-1 -1 $-1 $673 $681 #
straight-curve $-1 -1 $-1 -85.43865790233452628 130.7371034449452907 -191.75 -7.02190804625440812 7.119888158528027589 0 I I #
DXID-attrib $-1 -1 $-1 $-1 $589 @10 ASM ENTITY @36 8735857f-ca2f-4ccd-9e71-caea8704a54a #
plane-surface $-1 -1 $-1 -85.43865790233452628 130.7371034449452907 -241.75 -0.7119888158528027144 -0.702190804625440812 0 0 0 10 forward_v I I I I #
DXID-attrib $-1 -1 $-1 $-1 $592 @10 ASM ENTITY @36 55436eb6-a746-4d72-ae25-16e8aa045f9f #
straight-curve $-1 -1 $-1 -85.78975330464726312 131.0930978528716935 -241.75 -7.119888158527880151 -7.021908046254560887 0 I I #
point $-1 -1 $-1 -85.78975330464726312 131.0930978528716935 -241.7500000000000568 #
DXID-attrib $-1 -1 $-1 $-1 $602 @10 ASM ENTITY @36 f3150f5e-915e-4fe5-ab0a-cdc25da32b95 #
straight-curve $-1 -1 $-1 106.6654119646844663 88.91022408160851853 -283.5 -7.087882471092104453 7.054213072766181369 0 I I #
point $-1 -1 $-1 106.6654119646844663 88.91022408160851853 -283.5 #
DXID-attrib $-1 -1 $-1 $-1 $607 @10 ASM ENTITY @36 3ac81ab1-a451-40e6-932d-35caffeeef80 #
straight-curve $-1 -1 $-1 106.6654119646844663 88.91022408160851853 0 0 0 -10 I I #
DXID-attrib $-1 -1 $-1 $-1 $612 @10 ASM ENTITY @36 0c83b860-70e8-488a-8e85-ffd5365561c1 #
plane-surface $-1 -1 $-1 196 0 0 -0.7054213072766181147 -0.7087882471092104009 -0 -7.087882471092104453 7.054213072766181369 0 forward_v I I I I #
DXID-attrib $-1 -1 $-1 $-1 $615 @10 ASM ENTITY @36 7c70d715-ff8b-49fa-ad87-aa928bc257d7 #
plane-surface $-1 -1 $-1 -121.0380986949739111 95.62756321367248802 -191.75 0.7119888158528027144 0.702190804625440812 0 0 0 -10 forward_v I I I I #
point $-1 -1 $-1 196.0000000000000568 0 -283.5 #
coedge $-1 -1 $-1 $625 $624 $682 $683 reversed $626 $-1 #
coedge $-1 -1 $-1 $631 $682 $628 $665 forward $453 $-1 #
edge $684 -1 $-1 $667 -2 $634 -0 $628 $685 forward @7 unknown #
DXID-attrib $-1 -1 $-1 $-1 $629 @10 ASM ENTITY @36 9a33fc25-0594-4f3e-91d0-834ae1abbe1c #
vertex $-1 -1 $-1 $665 $686 #
straight-curve $-1 -1 $-1 -121.0380986949739111 95.62756321367248802 -241.75 -7.02190804625440812 7.119888158528027589 0 I I #
DXID-attrib $-1 -1 $-1 $-1 $632 @10 ASM ENTITY @36 5c80b5c7-c675-4ed3-9a3f-e31c97911202 #
straight-curve $-1 -1 $-1 -135.6289704143424331 81.9397415290897726 -171.75 0 0 10 I I #
point $-1 -1 $-1 -135.6289704143424046 81.93974152908975839 -241.7500000000000568 #
coedge $-1 -1 $-1 $682 $643 $639 $673 forward $453 $-1 #
edge $687 -1 $-1 $646 -5.000000000000000888 $675 -0 $639 $688 forward @7 unknown #
DXID-attrib $-1 -1 $-1 $-1 $640 @10 ASM ENTITY @36 d6428699-4752-4539-b39e-9097f5e17986 #
vertex $-1 -1 $-1 $683 $689 #
straight-curve $-1 -1 $-1 -121.0380986949739111 95.62756321367248802 -191.75 -7.02190804625440812 7.119888158528027589 0 I I #
DXID-attrib $-1 -1 $-1 $-1 $641 @10 ASM ENTITY @36 2c5b299a-e6cf-4532-96e0-3d8b8fc2788a #
plane-surface $-1 -1 $-1 -85.43865790233452628 130.7371034449452907 -191.75 0 0 -1 -7.119888158527878375 -7.02190804625455911 0 forward_v I I I I #
DXID-attrib $-1 -1 $-1 $-1 $644 @10 ASM ENTITY @36 83cc954d-a6d2-40fe-915b-304175ed1606 #
straight-curve $-1 -1 $-1 -85.78975330464726312 131.0930978528716935 -191.75 0 0 10 I I #
point $-1 -1 $-1 -85.78975330464726312 131.0930978528716935 -191.75 #
coedge $-1 -1 $-1 $664 $672 $663 $683 forward $453 $-1 #
edge $690 -1 $-1 $675 -5 $667 -0 $663 $691 forward @7 unknown #
DXID-attrib $-1 -1 $-1 $-1 $665 @10 ASM ENTITY @36 dd7b2236-5559-4672-b8c8-703828503a81 #
straight-curve $-1 -1 $-1 -135.6289704143424331 81.9397415290897726 -241.75 -7.119888158527878375 -7.021908046254559999 0 I I #
point $-1 -1 $-1 -121.3891940972866479 95.98355762159890503 -241.7500000000000568 #
DXID-attrib $-1 -1 $-1 $-1 $673 @10 ASM ENTITY @36 8139c7aa-d867-4f1e-877e-a5d6d60a2520 #
straight-curve $-1 -1 $-1 -121.3891940972866621 95.98355762159889082 -191.75 -7.119888158527880151 -7.021908046254560887 0 I I #
point $-1 -1 $-1 -121.3891940972866479 95.98355762159890503 -191.75 #
DXID-attrib $-1 -1 $-1 $-1 $683 @10 ASM ENTITY @36 aa9466b5-add6-4fe3-a0ee-2b30a54e2ff1 #
straight-curve $-1 -1 $-1 -121.3891940972866621 95.98355762159889082 -241.75 0 0 -10 I I #
End-of-ACIS-data 